<svg width="173" height="44" viewBox="0 0 173 44" fill="none" xmlns="http://www.w3.org/2000/svg">
<g clip-path="url(#clip0_327_4269)">
<path d="M64.9593 28.1003V22.059C64.9593 20.2739 64.3942 19.3813 63.2641 19.3813C61.9135 19.3813 61.2067 20.352 61.1444 22.2935V28.0829H57.5871V22.059C57.5871 20.2739 57.0211 19.3813 55.8889 19.3813C55.5868 19.3705 55.2867 19.4339 55.0156 19.5657C54.7442 19.6975 54.5102 19.8938 54.3343 20.1369C53.9595 20.6435 53.7692 21.4077 53.7692 22.4324V28.0916H50.2119V16.4548H53.7692V17.6416C54.1173 17.1785 54.5729 16.8051 55.0978 16.5532C55.6228 16.3013 56.2016 16.1781 56.7848 16.1942C58.4341 16.1942 59.6433 16.8774 60.4124 18.2437C60.752 17.5827 61.2984 17.0477 61.97 16.7182C62.6088 16.3829 63.3197 16.2033 64.0429 16.1942C65.4717 16.1942 66.5746 16.6603 67.3513 17.5924C68.1281 18.5245 68.5186 19.8136 68.5224 21.4598V28.0974L64.9593 28.1003Z" fill="#25284B"/>
<path d="M76.5592 28.3579C74.7343 28.3579 73.2382 27.779 72.0709 26.6211C71.49 26.0497 71.0344 25.3663 70.7323 24.6133C70.4298 23.8603 70.2875 23.0539 70.3142 22.2443C70.2902 21.438 70.4363 20.6357 70.7425 19.8882C71.0491 19.1407 71.5093 18.4644 72.0943 17.9022C72.6819 17.3302 73.3802 16.8815 74.1473 16.583C74.9147 16.2845 75.735 16.1425 76.5592 16.1653C77.393 16.16 78.2204 16.3103 78.9981 16.6082C79.7523 16.8996 80.4406 17.3354 81.0241 17.8906C81.6448 18.4982 82.1159 19.2391 82.4002 20.0558C82.7501 21.0292 82.9052 22.0605 82.8569 23.0924H73.7807C73.8082 23.4007 73.8975 23.7004 74.043 23.9742C74.1889 24.2481 74.3882 24.4905 74.6298 24.6874C75.1334 25.1158 75.8398 25.33 76.7495 25.33C77.2393 25.3355 77.7236 25.2275 78.1636 25.0145C78.5302 24.86 78.8306 24.5835 79.0127 24.2329H82.734C82.358 25.4592 81.5579 26.5156 80.4737 27.2174C79.3175 27.9843 77.9514 28.3823 76.5592 28.3579ZM76.4655 18.9935C75.8609 18.9711 75.2666 19.1517 74.7791 19.5058C74.3338 19.8448 74.0144 20.3202 73.8715 20.8577H78.9161C78.787 20.2865 78.4465 19.7836 77.9616 19.4479C77.5201 19.1516 76.999 18.9933 76.4655 18.9935Z" fill="#25284B"/>
<path d="M90.3316 33.2038C88.6841 33.2038 87.3374 32.7803 86.2912 31.933C85.7932 31.5498 85.3836 31.0658 85.0891 30.5137C84.7948 29.962 84.6227 29.3544 84.5843 28.7314H88.045C88.4081 29.7698 89.2015 30.2897 90.4253 30.2917C91.0428 30.3076 91.6424 30.0856 92.0971 29.6722C92.3342 29.4418 92.5181 29.1633 92.6364 28.8561C92.7547 28.5488 92.8044 28.2199 92.7822 27.8919V26.5169C92.4581 26.9697 92.0131 27.3244 91.4969 27.5417C90.8941 27.8119 90.2382 27.9473 89.5762 27.9383C88.8428 27.9435 88.1164 27.7935 87.4466 27.4984C86.7764 27.2034 86.1779 26.77 85.691 26.2275C84.6438 25.09 84.0635 23.6073 84.0635 22.0692C84.0635 20.5311 84.6438 19.0483 85.691 17.9109C86.1788 17.3657 86.7796 16.9305 87.4524 16.6348C88.1252 16.3391 88.8545 16.1899 89.5909 16.1972C90.2529 16.1881 90.9087 16.3235 91.5115 16.5938C92.0277 16.811 92.4727 17.1658 92.7968 17.6185V16.4606H96.3541V27.3854C96.374 28.3179 96.2019 29.2447 95.8476 30.1093C95.558 30.8217 95.087 31.4479 94.4803 31.9272C93.9112 32.3586 93.2688 32.6859 92.5831 32.8941C91.8526 33.108 91.0934 33.2125 90.3316 33.2038ZM88.4461 24.0014C88.9626 24.4778 89.6427 24.7427 90.3492 24.7427C91.0557 24.7427 91.7358 24.4778 92.2523 24.0014C92.7643 23.4851 93.0513 22.7909 93.0513 22.0677C93.0513 21.3446 92.7643 20.6503 92.2523 20.134C91.7346 19.6596 91.0551 19.3959 90.3492 19.3959C89.6433 19.3959 88.9637 19.6596 88.4461 20.134C87.934 20.6503 87.6471 21.3446 87.6471 22.0677C87.6471 22.7909 87.934 23.4851 88.4461 24.0014Z" fill="#25284B"/>
<path d="M103.753 28.3579C103.012 28.3627 102.28 28.2041 101.609 27.8936C100.939 27.5831 100.347 27.1286 99.8761 26.5632C98.8499 25.3658 98.2866 23.8471 98.2866 22.2776C98.2866 20.708 98.8499 19.1893 99.8761 17.9919C100.347 17.4265 100.939 16.972 101.609 16.6615C102.28 16.351 103.012 16.1924 103.753 16.1972C104.362 16.1721 104.968 16.2874 105.525 16.5341C106.081 16.7808 106.572 17.152 106.959 17.6185V16.4606H110.516V28.1061H106.959V26.9482C106.571 27.4126 106.08 27.7816 105.523 28.0262C104.967 28.2709 104.361 28.3844 103.753 28.3579ZM102.611 24.3516C102.863 24.609 103.165 24.8136 103.499 24.9533C103.833 25.0931 104.192 25.1651 104.555 25.1651C104.917 25.1651 105.276 25.0931 105.61 24.9533C105.944 24.8136 106.246 24.609 106.499 24.3516C106.978 23.7643 107.24 23.0323 107.24 22.2776C107.24 21.5228 106.978 20.7908 106.499 20.2035C106.246 19.9461 105.944 19.7415 105.61 19.6018C105.276 19.462 104.917 19.39 104.555 19.39C104.192 19.39 103.833 19.462 103.499 19.6018C103.165 19.7415 102.863 19.9461 102.611 20.2035C102.13 20.7901 101.867 21.5224 101.867 22.2776C101.867 23.0327 102.13 23.7649 102.611 24.3516Z" fill="#25284B"/>
<path d="M117.534 28.3348C116.282 28.3757 115.05 28.0164 114.021 27.31C113.567 27.0014 113.193 26.5917 112.929 26.1141C112.665 25.6364 112.519 25.1041 112.501 24.56H115.186C115.381 25.7179 116.19 26.2969 117.613 26.2969C118.097 26.319 118.578 26.2099 119.004 25.9814C119.167 25.8897 119.302 25.7553 119.393 25.5929C119.485 25.4306 119.529 25.2465 119.522 25.0608C119.53 24.8822 119.498 24.704 119.429 24.5389C119.36 24.3738 119.255 24.2258 119.121 24.1056C118.723 23.8152 118.263 23.6173 117.777 23.5266L115.845 23.0143C113.836 22.4874 112.831 21.315 112.829 19.4971C112.819 19.0357 112.923 18.5788 113.133 18.1665C113.342 17.7542 113.651 17.399 114.032 17.1321C114.832 16.5358 115.892 16.2367 117.212 16.2348C118.336 16.1882 119.442 16.5255 120.345 17.19C120.742 17.4927 121.07 17.8758 121.305 18.3135C121.541 18.7513 121.68 19.2338 121.712 19.7287H119.121C118.869 18.7638 118.225 18.2814 117.188 18.2814C116.751 18.2577 116.317 18.3635 115.941 18.5853C115.793 18.6772 115.672 18.8055 115.589 18.9578C115.507 19.1101 115.465 19.281 115.47 19.4537C115.47 20.1224 115.994 20.5885 117.048 20.8519L119.027 21.3643C121.114 21.8911 122.158 23.0635 122.16 24.8814C122.182 25.3794 122.076 25.8748 121.851 26.321C121.626 26.7672 121.29 27.1494 120.875 27.4316C120.014 28.0356 118.9 28.3367 117.534 28.3348Z" fill="#55A5DB"/>
<path d="M129.541 28.219C128.479 28.2651 127.439 27.9113 126.631 27.229C125.883 26.569 125.51 25.6099 125.512 24.3516V18.7358H123.062V16.4548H125.512V13.2156H128.103V16.4548H131.473V18.7358H128.103V23.9319C128.103 24.6469 128.261 25.1535 128.575 25.4574C128.888 25.7614 129.391 25.9119 130.082 25.9119C130.557 25.9281 131.03 25.8483 131.473 25.6774V27.9614C130.845 28.1412 130.194 28.2281 129.541 28.219Z" fill="#55A5DB"/>
<path d="M138.146 28.3348C137.383 28.3464 136.626 28.1939 135.928 27.888C135.231 27.5821 134.609 27.1301 134.105 26.5632C133.053 25.3815 132.471 23.8615 132.469 22.287C132.467 20.7124 133.045 19.1909 134.094 18.0064C134.597 17.4395 135.219 16.9874 135.917 16.6816C136.614 16.3757 137.371 16.2233 138.134 16.2348C138.904 16.2288 139.664 16.4086 140.347 16.7588C140.96 17.0554 141.492 17.4908 141.902 18.0295V16.4693H144.493V28.1148H141.902V26.5545C141.492 27.0932 140.96 27.5286 140.347 27.8253C139.666 28.1686 138.91 28.3434 138.146 28.3348ZM136.096 24.9335C136.421 25.2718 136.812 25.5412 137.245 25.7252C137.679 25.9093 138.145 26.0043 138.617 26.0043C139.089 26.0043 139.555 25.9093 139.989 25.7252C140.422 25.5412 140.813 25.2718 141.138 24.9335C141.777 24.1927 142.128 23.2511 142.128 22.2776C142.128 21.304 141.777 20.3624 141.138 19.6216C140.813 19.2834 140.422 19.014 139.989 18.8299C139.555 18.6458 139.089 18.5509 138.617 18.5509C138.145 18.5509 137.679 18.6458 137.245 18.8299C136.812 19.014 136.421 19.2834 136.096 19.6216C135.457 20.3624 135.106 21.304 135.106 22.2776C135.106 23.2511 135.457 24.1927 136.096 24.9335Z" fill="#55A5DB"/>
<path d="M152.911 28.3348C152.095 28.3524 151.284 28.2088 150.525 27.9123C149.766 27.6158 149.075 27.1725 148.491 26.6083C147.908 26.044 147.444 25.3703 147.128 24.6267C146.812 23.883 146.649 23.0843 146.649 22.2776C146.649 21.4708 146.812 20.6721 147.128 19.9284C147.444 19.1848 147.908 18.511 148.491 17.9468C149.075 17.3826 149.766 16.9393 150.525 16.6428C151.284 16.3463 152.095 16.2027 152.911 16.2203C154.318 16.1824 155.695 16.6273 156.808 17.4795C157.862 18.2859 158.601 19.4301 158.895 20.7158H156.161C155.935 20.078 155.511 19.5276 154.948 19.144C154.346 18.7379 153.628 18.5302 152.899 18.5506C152.424 18.5353 151.951 18.6209 151.512 18.8017C151.073 18.9824 150.678 19.2541 150.355 19.5985C149.716 20.3482 149.365 21.2971 149.365 22.2776C149.365 23.258 149.716 24.2069 150.355 24.9566C150.678 25.3009 151.073 25.5726 151.512 25.7534C151.951 25.9342 152.424 26.0198 152.899 26.0045C153.626 26.0291 154.344 25.8266 154.948 25.4256C155.511 25.042 155.935 24.4915 156.161 23.8537H158.895C158.602 25.14 157.864 26.2847 156.808 27.0901C155.693 27.9371 154.316 28.3769 152.911 28.3348Z" fill="#55A5DB"/>
<path d="M169.207 28.1003L163.576 22.4874V28.1003H160.982V10.6306H163.576V20.8808L168.074 16.4548H171.35L166.08 21.648L172.521 28.1003H169.207Z" fill="#55A5DB"/>
<path d="M34.3197 28.6358V30.7809L29.9631 33.2703L19.3967 39.3117L8.80092 33.2703L4.45312 30.7925V28.6242L6.33863 29.7011L11.231 32.5032L19.3879 37.1725L26.4732 33.1198L32.4547 29.7011L34.3197 28.6358Z" fill="#25284B"/>
<path d="M34.3197 28.6359L32.4547 29.7012L26.4732 33.1198L19.3879 37.1725L11.231 32.5033L6.33863 29.7012L4.45312 28.6243L6.35327 27.5359L19.3879 35.0043L32.3756 27.5185L34.3197 28.6359Z" fill="#25284B"/>
<path d="M4.45348 13.6556V13.6676L4.44434 13.6616L4.45348 13.6556Z" fill="#25284B"/>
<path d="M4.42969 19.5903L4.45406 19.5753V19.6053L4.42969 19.5903Z" fill="#25284B"/>
<path d="M34.3294 19.5672L34.3198 19.5704V19.5608L34.3294 19.5672Z" fill="#25284B"/>
<path d="M4.45396 24.4269V24.4365L4.44434 24.4301L4.45396 24.4269Z" fill="#B8529E"/>
<path d="M4.45396 22.3166V22.3262L4.44434 22.3198L4.45396 22.3166Z" fill="#25284B"/>
<path d="M4.45348 30.7809V30.7929L4.44434 30.7869L4.45348 30.7809Z" fill="#25284B"/>
<path d="M34.329 30.7753L34.3198 30.7813V30.7693L34.329 30.7753Z" fill="#25284B"/>
<path d="M34.329 25.171L34.3198 25.177V25.165L34.329 25.171Z" fill="#B8529E"/>
<path d="M34.3197 23.1214V23.1301L32.5455 24.1461L28.833 26.2709L19.3879 31.6725L9.94277 26.2622L6.27715 24.1606L4.45312 23.1185V23.1069L6.44989 21.9664L19.3879 29.3741L32.2907 21.9577L34.3197 23.1214Z" fill="#25284B"/>
<path d="M34.3294 23.1246L34.3198 23.131V23.1214L34.3294 23.1246Z" fill="#B8529E"/>
<path d="M34.3197 23.13V25.1766L30.6277 27.3043L19.3879 33.7856L8.1041 27.3187L4.45312 25.2287V23.1185L6.27715 24.1606L9.94277 26.2622L19.3879 31.6725L28.833 26.2708L32.5455 24.1461L34.3197 23.13Z" fill="#25284B"/>
<path d="M34.329 13.7253L34.3198 13.7313V13.7193L34.329 13.7253Z" fill="#EC1E24"/>
<path d="M34.3197 13.7309V19.5695L31.916 20.9532L19.3879 28.1553L6.82465 20.9619L4.45312 19.6043V13.6672L9.55923 16.6111L11.231 17.5751L19.385 22.2819L26.8099 18.0295L29.2605 16.6285L34.3197 13.7309Z" fill="#55A5DB"/>
<path d="M34.3197 13.7193V13.7308L29.2605 16.6285L26.8099 18.0295L19.385 22.2819L11.231 17.5751L9.55923 16.6111L4.45312 13.6672V13.6556L9.66463 10.6943L19.385 5.16821L29.035 10.6943L34.3197 13.7193Z" fill="#55A5DB"/>
<path d="M19.4202 43.8188C19.1388 43.8179 18.8624 43.745 18.6179 43.6075L0.846137 33.4585C0.603852 33.3187 0.402653 33.119 0.262461 32.879C0.122269 32.6387 0.0479449 32.3666 0.0468455 32.0893L4.66854e-07 11.7161C-0.000214511 11.4375 0.0738188 11.1637 0.214649 10.9223C0.355477 10.6809 0.558134 10.4805 0.80222 10.3411L18.5916 0.209539C18.8351 0.0722205 19.1106 0 19.3909 0C19.6712 0 19.9467 0.0722205 20.1902 0.209539L37.9708 10.3209C38.2152 10.4591 38.4187 10.6589 38.5601 10.8998C38.7015 11.1408 38.7759 11.4144 38.7759 11.693V32.0343C38.7753 32.3119 38.7012 32.5849 38.561 32.8254C38.4208 33.0663 38.2193 33.2666 37.9766 33.4064L20.2224 43.6046C19.9788 43.7447 19.702 43.8188 19.4202 43.8188ZM2.17829 31.7825L19.4172 41.6246L36.6415 31.7477V12.0143L19.3909 2.20691L2.13437 12.0172L2.17829 31.7825Z" fill="#55A5DB"/>
</g>
<defs>
<clipPath id="clip0_327_4269">
<rect width="172.741" height="44" fill="white"/>
</clipPath>
</defs>
</svg>
