<svg width="24" height="22" viewBox="0 0 24 22" fill="none" xmlns="http://www.w3.org/2000/svg">
<path d="M7.55015 20.7502C16.6045 20.7502 21.5583 13.247 21.5583 6.74212C21.5583 6.53117 21.5536 6.31557 21.5442 6.10462C22.5079 5.40772 23.3395 4.54451 24 3.55554C23.1025 3.95484 22.1497 4.21562 21.1739 4.32896C22.2013 3.71316 22.9706 2.74571 23.3391 1.60601C22.3726 2.1788 21.3156 2.58285 20.2134 2.80086C19.4708 2.01181 18.489 1.48936 17.4197 1.31429C16.3504 1.13923 15.2532 1.32129 14.2978 1.83234C13.3423 2.34339 12.5818 3.15495 12.1339 4.14156C11.6859 5.12816 11.5754 6.23487 11.8195 7.29057C9.8625 7.19232 7.94795 6.68397 6.2 5.79837C4.45202 4.91272 2.9097 3.66968 1.67297 2.14976C1.0444 3.23349 0.852055 4.51592 1.13503 5.73632C1.418 6.95677 2.15507 8.02372 3.1964 8.72022C2.41463 8.69542 1.64998 8.48492 0.965625 8.10617V8.16711C0.964925 9.30441 1.3581 10.4068 2.07831 11.287C2.79852 12.1672 3.80133 12.7708 4.91625 12.9952C4.19206 13.1934 3.43198 13.2223 2.69484 13.0796C3.00945 14.0577 3.62157 14.9131 4.44577 15.5266C5.26995 16.14 6.2651 16.4809 7.29235 16.5015C5.5484 17.8714 3.39418 18.6144 1.17657 18.6109C0.783285 18.6103 0.390399 18.5862 0 18.5387C2.25286 19.984 4.87353 20.7516 7.55015 20.7502Z" fill="white" stroke="white"/>
</svg>
